<svg xmlns="http://www.w3.org/2000/svg" xmlns:xlink="http://www.w3.org/1999/xlink" contentStyleType="text/css" height="1500px" preserveAspectRatio="none" style="width:1822px;height:1500px;background:#FFFFFF;" version="1.1" viewBox="0 0 1822 1500" width="1822.5px" zoomAndPan="magnify"><defs/><g><!--cluster App--><g id="cluster_App"><polygon fill="none" points="30,305.6062,48.75,286.8562,883.125,286.8562,883.125,942.0937,864.375,960.8437,30,960.8437,30,305.6062" style="stroke:#181818;stroke-width:1.875;"/><line style="stroke:#181818;stroke-width:1.875;" x1="864.375" x2="883.125" y1="305.6062" y2="286.8562"/><line style="stroke:#181818;stroke-width:1.875;" x1="30" x2="864.375" y1="305.6062" y2="305.6062"/><line style="stroke:#181818;stroke-width:1.875;" x1="864.375" x2="864.375" y1="305.6062" y2="960.8437"/><text fill="#000000" font-family="sans-serif" font-size="26.25" font-weight="bold" lengthAdjust="spacing" textLength="454.671" x="221.727" y="336.6097">Heatwise Service (Pekko Streams)</text></g><!--cluster UI--><g id="cluster_UI"><polygon fill="none" points="1220.625,1086.4687,1239.375,1067.7187,1636.875,1067.7187,1636.875,1241.1375,1618.125,1259.8875,1220.625,1259.8875,1220.625,1086.4687" style="stroke:#181818;stroke-width:1.875;"/><line style="stroke:#181818;stroke-width:1.875;" x1="1618.125" x2="1636.875" y1="1086.4687" y2="1067.7187"/><line style="stroke:#181818;stroke-width:1.875;" x1="1220.625" x2="1618.125" y1="1086.4687" y2="1086.4687"/><line style="stroke:#181818;stroke-width:1.875;" x1="1618.125" x2="1618.125" y1="1086.4687" y2="1259.8875"/><text fill="#000000" font-family="sans-serif" font-size="26.25" font-weight="bold" lengthAdjust="spacing" textLength="274.2664" x="1284.1168" y="1117.4722">Heatwise UI (NGINX)</text></g><!--cluster View--><g id="cluster_View"><polygon fill="none" points="1108.125,772.4437,1126.875,753.6937,1790.625,753.6937,1790.625,927.0937,1771.875,945.8437,1108.125,945.8437,1108.125,772.4437" style="stroke:#181818;stroke-width:1.875;"/><line style="stroke:#181818;stroke-width:1.875;" x1="1771.875" x2="1790.625" y1="772.4437" y2="753.6937"/><line style="stroke:#181818;stroke-width:1.875;" x1="1108.125" x2="1771.875" y1="772.4437" y2="772.4437"/><line style="stroke:#181818;stroke-width:1.875;" x1="1771.875" x2="1771.875" y1="772.4437" y2="945.8437"/><text fill="#000000" font-family="sans-serif" font-size="26.25" font-weight="bold" lengthAdjust="spacing" textLength="540.8167" x="1171.4667" y="803.4472">Heatwise View (Spring - Kafka Streams)</text></g><!--cluster Kafka--><g id="cluster_Kafka"><polygon fill="none" points="793.125,1105.2187,811.875,1086.4687,1175.625,1086.4687,1175.625,1222.3875,1156.875,1241.1375,793.125,1241.1375,793.125,1105.2187" style="stroke:#181818;stroke-width:1.875;"/><line style="stroke:#181818;stroke-width:1.875;" x1="1156.875" x2="1175.625" y1="1105.2187" y2="1086.4687"/><line style="stroke:#181818;stroke-width:1.875;" x1="793.125" x2="1156.875" y1="1105.2187" y2="1105.2187"/><line style="stroke:#181818;stroke-width:1.875;" x1="1156.875" x2="1156.875" y1="1105.2187" y2="1241.1375"/><text fill="#000000" font-family="sans-serif" font-size="26.25" font-weight="bold" lengthAdjust="spacing" textLength="184.3909" x="884.6796" y="1136.2222">Apache Kafka</text></g><!--entity Price Poller--><g id="elem_Price Poller"><rect fill="#F1F1F1" height="87.1655" rx="14.0625" ry="14.0625" style="stroke:#181818;stroke-width:0.9375;" width="215.3888" x="623.55" y="376.8562"/><rect fill="#F1F1F1" height="18.75" style="stroke:#181818;stroke-width:0.9375;" width="28.125" x="801.4388" y="386.2312"/><rect fill="#F1F1F1" height="3.75" style="stroke:#181818;stroke-width:0.9375;" width="7.5" x="797.6888" y="389.9812"/><rect fill="#F1F1F1" height="3.75" style="stroke:#181818;stroke-width:0.9375;" width="7.5" x="797.6888" y="397.4812"/><text fill="#000000" font-family="sans-serif" font-size="26.25" lengthAdjust="spacing" textLength="140.3888" x="651.675" y="439.7347">Price Poller</text></g><!--entity Decision Logic--><g id="elem_Decision Logic"><rect fill="#F1F1F1" height="87.1655" rx="14.0625" ry="14.0625" style="stroke:#181818;stroke-width:0.9375;" width="259.5319" x="518.9813" y="578.4"/><rect fill="#F1F1F1" height="18.75" style="stroke:#181818;stroke-width:0.9375;" width="28.125" x="741.0131" y="587.775"/><rect fill="#F1F1F1" height="3.75" style="stroke:#181818;stroke-width:0.9375;" width="7.5" x="737.2631" y="591.525"/><rect fill="#F1F1F1" height="3.75" style="stroke:#181818;stroke-width:0.9375;" width="7.5" x="737.2631" y="599.025"/><text fill="#000000" font-family="sans-serif" font-size="26.25" lengthAdjust="spacing" textLength="184.5319" x="547.1063" y="641.2784">Decision Logic</text></g><!--entity Relay Adapter--><g id="elem_Relay Adapter"><rect fill="#F1F1F1" height="87.1655" rx="14.0625" ry="14.0625" style="stroke:#181818;stroke-width:0.9375;" width="251.1621" x="176.2875" y="828.6937"/><rect fill="#F1F1F1" height="18.75" style="stroke:#181818;stroke-width:0.9375;" width="28.125" x="389.9496" y="838.0687"/><rect fill="#F1F1F1" height="3.75" style="stroke:#181818;stroke-width:0.9375;" width="7.5" x="386.1996" y="841.8187"/><rect fill="#F1F1F1" height="3.75" style="stroke:#181818;stroke-width:0.9375;" width="7.5" x="386.1996" y="849.3187"/><text fill="#000000" font-family="sans-serif" font-size="26.25" lengthAdjust="spacing" textLength="176.1621" x="204.4125" y="891.5722">Relay Adapter</text></g><!--entity Decision Log--><g id="elem_Decision Log"><rect fill="#F1F1F1" height="87.1655" rx="14.0625" ry="14.0625" style="stroke:#181818;stroke-width:0.9375;" width="238.4985" x="529.5" y="828.6937"/><rect fill="#F1F1F1" height="18.75" style="stroke:#181818;stroke-width:0.9375;" width="28.125" x="730.4985" y="838.0687"/><rect fill="#F1F1F1" height="3.75" style="stroke:#181818;stroke-width:0.9375;" width="7.5" x="726.7485" y="841.8187"/><rect fill="#F1F1F1" height="3.75" style="stroke:#181818;stroke-width:0.9375;" width="7.5" x="726.7485" y="849.3187"/><text fill="#000000" font-family="sans-serif" font-size="26.25" lengthAdjust="spacing" textLength="163.4985" x="557.625" y="891.5722">Decision Log</text></g><!--entity Cylinder Thermometer Poller--><g id="elem_Cylinder Thermometer Poller"><rect fill="#F1F1F1" height="87.1655" rx="14.0625" ry="14.0625" style="stroke:#181818;stroke-width:0.9375;" width="441.2183" x="116.8875" y="376.8562"/><rect fill="#F1F1F1" height="18.75" style="stroke:#181818;stroke-width:0.9375;" width="28.125" x="520.6058" y="386.2312"/><rect fill="#F1F1F1" height="3.75" style="stroke:#181818;stroke-width:0.9375;" width="7.5" x="516.8558" y="389.9812"/><rect fill="#F1F1F1" height="3.75" style="stroke:#181818;stroke-width:0.9375;" width="7.5" x="516.8558" y="397.4812"/><text fill="#000000" font-family="sans-serif" font-size="26.25" lengthAdjust="spacing" textLength="366.2183" x="145.0125" y="439.7347">Cylinder Thermometer Poller</text></g><!--entity SPA--><g id="elem_SPA"><rect fill="#F1F1F1" height="87.1655" rx="14.0625" ry="14.0625" style="stroke:#181818;stroke-width:0.9375;" width="121.7578" x="1249.7437" y="1142.7187"/><rect fill="#F1F1F1" height="18.75" style="stroke:#181818;stroke-width:0.9375;" width="28.125" x="1334.0016" y="1152.0937"/><rect fill="#F1F1F1" height="3.75" style="stroke:#181818;stroke-width:0.9375;" width="7.5" x="1330.2516" y="1155.8437"/><rect fill="#F1F1F1" height="3.75" style="stroke:#181818;stroke-width:0.9375;" width="7.5" x="1330.2516" y="1163.3437"/><text fill="#000000" font-family="sans-serif" font-size="26.25" lengthAdjust="spacing" textLength="46.7578" x="1277.8687" y="1205.5972">SPA</text></g><!--entity DVKT--><g id="elem_DVKT"><rect fill="#F1F1F1" height="87.1655" rx="14.0625" ry="14.0625" style="stroke:#181818;stroke-width:0.9375;" width="313.4033" x="1140.8062" y="828.6937"/><rect fill="#F1F1F1" height="18.75" style="stroke:#181818;stroke-width:0.9375;" width="28.125" x="1416.7096" y="838.0687"/><rect fill="#F1F1F1" height="3.75" style="stroke:#181818;stroke-width:0.9375;" width="7.5" x="1412.9596" y="841.8187"/><rect fill="#F1F1F1" height="3.75" style="stroke:#181818;stroke-width:0.9375;" width="7.5" x="1412.9596" y="849.3187"/><text fill="#000000" font-family="sans-serif" font-size="26.25" lengthAdjust="spacing" textLength="238.4033" x="1168.9312" y="891.5722">DeviceView KTable</text></g><!--entity decisions--><g id="elem_decisions"><path d="M833.025,1161.4687 L970.7203,1161.4687 C980.0953,1161.4687 980.0953,1186.3015 980.0953,1186.3015 C980.0953,1186.3015 980.0953,1211.1343 970.7203,1211.1343 L833.025,1211.1343 C823.65,1211.1343 823.65,1186.3015 823.65,1186.3015 C823.65,1186.3015 823.65,1161.4687 833.025,1161.4687 " fill="#F1F1F1" style="stroke:#181818;stroke-width:0.9375;"/><path d="M970.7203,1161.4687 C961.3453,1161.4687 961.3453,1186.3015 961.3453,1186.3015 C961.3453,1211.1343 970.7203,1211.1343 970.7203,1211.1343 " fill="none" style="stroke:#181818;stroke-width:0.9375;"/><text fill="#000000" font-family="sans-serif" font-size="26.25" lengthAdjust="spacing" textLength="118.9453" x="833.025" y="1196.2222">decisions</text></g><!--entity state--><g id="elem_state"><path d="M1054.5562,1161.4687 L1135.4449,1161.4687 C1144.8199,1161.4687 1144.8199,1186.3015 1144.8199,1186.3015 C1144.8199,1186.3015 1144.8199,1211.1343 1135.4449,1211.1343 L1054.5562,1211.1343 C1045.1812,1211.1343 1045.1812,1186.3015 1045.1812,1186.3015 C1045.1812,1186.3015 1045.1812,1161.4687 1054.5562,1161.4687 " fill="#F1F1F1" style="stroke:#181818;stroke-width:0.9375;"/><path d="M1135.4449,1161.4687 C1126.0699,1161.4687 1126.0699,1186.3015 1126.0699,1186.3015 C1126.0699,1211.1343 1135.4449,1211.1343 1135.4449,1211.1343 " fill="none" style="stroke:#181818;stroke-width:0.9375;"/><text fill="#000000" font-family="sans-serif" font-size="26.25" lengthAdjust="spacing" textLength="62.1387" x="1054.5562" y="1196.2222">state</text></g><!--entity User--><g id="elem_User"><ellipse cx="46.8799" cy="26.25" fill="#F1F1F1" rx="15" ry="15" style="stroke:#181818;stroke-width:0.9375;"/><path d="M46.8799,41.25 L46.8799,91.875 M22.5049,56.25 L71.2549,56.25 M46.8799,91.875 L22.5049,120 M46.8799,91.875 L71.2549,120 " fill="none" style="stroke:#181818;stroke-width:0.9375;"/><text fill="#000000" font-family="sans-serif" font-size="26.25" lengthAdjust="spacing" textLength="56.9348" x="18.4125" y="148.1909">User</text></g><!--entity CT--><g id="elem_CT"><path d="M175.3875,42.675 C175.3875,23.925 337.5063,23.925 337.5063,23.925 C337.5063,23.925 499.6252,23.925 499.6252,42.675 L499.6252,121.3811 C499.6252,140.1311 337.5063,140.1311 337.5063,140.1311 C337.5063,140.1311 175.3875,140.1311 175.3875,121.3811 L175.3875,42.675 " fill="#F1F1F1" style="stroke:#181818;stroke-width:0.9375;"/><path d="M175.3875,42.675 C175.3875,61.425 337.5063,61.425 337.5063,61.425 C337.5063,61.425 499.6252,61.425 499.6252,42.675 " fill="none" style="stroke:#181818;stroke-width:0.9375;"/><text fill="#000000" font-family="sans-serif" font-size="26.25" lengthAdjust="spacing" textLength="286.7377" x="194.1375" y="94.3034">Cylinder Thermometer</text><text fill="#000000" font-family="sans-serif" font-size="26.25" lengthAdjust="spacing" textLength="8.3057" x="194.1375" y="125.2189">&#160;</text></g><!--entity Octopus--><g id="elem_Octopus"><rect fill="#F1F1F1" height="68.4155" rx="14.0625" ry="14.0625" style="stroke:#181818;stroke-width:0.9375;" width="264.5471" x="598.9688" y="47.8125"/><text fill="#000000" font-family="sans-serif" font-size="26.25" lengthAdjust="spacing" textLength="227.0471" x="617.7188" y="91.9409">Octopus Agile API</text></g><!--entity Relay--><g id="elem_Relay"><polygon fill="#F1F1F1" points="116.7563,1161.4687,135.5063,1142.7187,404.4864,1142.7187,404.4864,1211.1343,385.7364,1229.8843,116.7563,1229.8843,116.7563,1161.4687" style="stroke:#181818;stroke-width:0.9375;"/><line style="stroke:#181818;stroke-width:0.9375;" x1="385.7364" x2="404.4864" y1="1161.4687" y2="1142.7187"/><line style="stroke:#181818;stroke-width:0.9375;" x1="116.7563" x2="385.7364" y1="1161.4687" y2="1161.4687"/><line style="stroke:#181818;stroke-width:0.9375;" x1="385.7364" x2="385.7364" y1="1161.4687" y2="1229.8843"/><text fill="#000000" font-family="sans-serif" font-size="26.25" lengthAdjust="spacing" textLength="212.7301" x="144.8813" y="1205.5972">Shelly/Contactor</text></g><!--entity Append-only file--><g id="elem_Append-only file"><ellipse cx="536.2526" cy="1363.95" fill="#F1F1F1" rx="15" ry="15" style="stroke:#181818;stroke-width:0.9375;"/><path d="M536.2526,1378.95 L536.2526,1429.575 M511.8776,1393.95 L560.6276,1393.95 M536.2526,1429.575 L511.8776,1457.7 M536.2526,1429.575 L560.6276,1457.7 " fill="none" style="stroke:#181818;stroke-width:0.9375;"/><text fill="#000000" font-family="sans-serif" font-size="26.25" lengthAdjust="spacing" textLength="215.2551" x="428.625" y="1485.8909">Append-only file</text></g><!--link Price Poller to Decision Logic--><g id="link_Price Poller_Decision Logic"><path d="M713.55,464.7375 C699.6375,498.1125 684.6557,534.0044 670.7432,567.3607 " fill="none" id="Price Poller-to-Decision Logic" style="stroke:#181818;stroke-width:1.875;"/><polygon fill="#181818" points="666.4125,577.7437,679.8305,565.0563,670.0214,569.0912,665.9864,559.2821,666.4125,577.7437" style="stroke:#181818;stroke-width:1.875;"/></g><!--link Decision Logic to Relay Adapter--><g id="link_Decision Logic_Relay Adapter"><path d="M589.125,666.225 C525.3938,711.525 434.1189,776.3875 370.4814,821.6313 " fill="none" id="Decision Logic-to-Relay Adapter" style="stroke:#181818;stroke-width:1.875;"/><polygon fill="#181818" points="361.3125,828.15,379.4117,824.4845,368.9532,822.7177,370.72,812.2593,361.3125,828.15" style="stroke:#181818;stroke-width:1.875;"/></g><!--link Decision Logic to Decision Log--><g id="link_Decision Logic_Decision Log"><path d="M648.75,666.225 C648.75,711.675 648.75,772.0875 648.75,817.3125 " fill="none" id="Decision Logic-to-Decision Log" style="stroke:#181818;stroke-width:1.875;"/><polygon fill="#181818" points="648.75,828.5625,656.25,811.6875,648.75,819.1875,641.25,811.6875,648.75,828.5625" style="stroke:#181818;stroke-width:1.875;"/></g><!--link Cylinder Thermometer Poller to Decision Logic--><g id="link_Cylinder Thermometer Poller_Decision Logic"><path d="M404.2688,464.7375 C456.7875,498.1125 520.0982,538.3545 572.5982,571.7107 " fill="none" id="Cylinder Thermometer Poller-to-Decision Logic" style="stroke:#181818;stroke-width:1.875;"/><polygon fill="#181818" points="582.0938,577.7437,571.8725,562.3638,574.1808,572.7162,563.8284,575.0245,582.0938,577.7437" style="stroke:#181818;stroke-width:1.875;"/></g><!--reverse link DVKT to SPA--><g id="link_DVKT_SPA"><path d="M1299.7766,927.8711 C1302.2891,987.1211 1306.3313,1082.7187 1308.825,1141.95 " fill="none" id="DVKT-backto-SPA" style="stroke:#181818;stroke-width:1.875;"/><polygon fill="#181818" points="1299.3,916.6312,1292.5217,933.8089,1299.6972,925.9978,1307.5082,933.1733,1299.3,916.6312" style="stroke:#181818;stroke-width:1.875;"/></g><!--link DVKT to decisions--><g id="link_DVKT_decisions"><path d="M1215.5063,916.4625 C1155.9,949.3125 1075.05,998.3062 1012.5,1052.7187 C974.4188,1085.85 944.9791,1123.4921 924.8979,1151.4671 " fill="none" id="DVKT-to-decisions" style="stroke:#181818;stroke-width:1.875;"/><polygon fill="#181818" points="918.3375,1160.6062,934.2708,1151.2711,923.8045,1152.9903,922.0853,1142.5239,918.3375,1160.6062" style="stroke:#181818;stroke-width:1.875;"/></g><!--link DVKT to state--><g id="link_DVKT_state"><path d="M1269.7688,916.6312 C1226.4375,983.025 1150.2929,1099.7167 1116.3554,1151.7105 " fill="none" id="DVKT-to-state" style="stroke:#181818;stroke-width:1.875;"/><polygon fill="#181818" points="1110.2063,1161.1313,1125.7105,1151.0995,1115.3305,1153.2806,1113.1495,1142.9007,1110.2063,1161.1313" style="stroke:#181818;stroke-width:1.875;"/></g><!--link User to App--><g id="link_User_App"><path d="M47.2688,154.05 C47.3953,176.8594 47.543,203.3543 47.695,230.5896 C47.771,244.2072 47.8482,258.0099 47.9243,271.6295 C47.9433,275.0344 47.9623,278.4279 47.9812,281.8042 C47.9906,283.4923 47.9371,273.9263 47.9465,275.6052 " fill="none" id="User-to-App" style="stroke:#181818;stroke-width:1.875;"/><polygon fill="#181818" points="48.0094,286.855,55.415,269.9383,47.957,277.4801,40.4152,270.0222,48.0094,286.855" style="stroke:#181818;stroke-width:1.875;"/><text fill="#000000" font-family="sans-serif" font-size="24.375" lengthAdjust="spacing" textLength="245.321" x="50.625" y="235.4219">configure thresholds</text></g><!--link Octopus to Price Poller--><g id="link_Octopus_Price Poller"><path d="M731.25,116.5875 C731.25,177.6187 731.25,297.5062 731.25,365.1 " fill="none" id="Octopus-to-Price Poller" style="stroke:#181818;stroke-width:1.875;"/><polygon fill="#181818" points="731.25,376.35,738.75,359.475,731.25,366.975,723.75,359.475,731.25,376.35" style="stroke:#181818;stroke-width:1.875;"/><text fill="#000000" font-family="sans-serif" font-size="24.375" lengthAdjust="spacing" textLength="127.576" x="733.125" y="235.4219">HTTP JSON</text></g><!--link Relay Adapter to Relay--><g id="link_Relay Adapter_Relay"><path d="M296.2313,916.6312 C288.3563,975.8812 275.6264,1071.5669 267.7514,1130.7981 " fill="none" id="Relay Adapter-to-Relay" style="stroke:#181818;stroke-width:1.875;"/><polygon fill="#181818" points="266.2687,1141.95,275.9273,1126.2107,267.5043,1132.6568,261.0582,1124.2337,266.2687,1141.95" style="stroke:#181818;stroke-width:1.875;"/><text fill="#000000" font-family="sans-serif" font-size="24.375" lengthAdjust="spacing" textLength="133.5983" x="285" y="1031.2844">HTTP (LAN)</text></g><!--link Decision Log to Append-only file--><g id="link_Decision Log_Append-only file"><path d="M626.25,916.125 C608.4,951.5062 584.4188,1004.025 571.875,1052.7187 C546.075,1152.9563 538.9852,1261.8039 537.0165,1336.1664 " fill="none" id="Decision Log-to-Append-only file" style="stroke:#181818;stroke-width:1.875;stroke-dasharray:7.0,7.0;"/><polygon fill="#181818" points="536.7188,1347.4125,544.6627,1330.7419,536.9669,1338.0408,529.668,1330.3449,536.7188,1347.4125" style="stroke:#181818;stroke-width:1.875;"/><text fill="#000000" font-family="sans-serif" font-size="24.375" lengthAdjust="spacing" textLength="218.2443" x="573.75" y="1195.8157">CSV : Switched Off</text></g><!--link Decision Log to decisions--><g id="link_Decision Log_decisions"><path d="M635.925,916.6125 C627.7125,953.3437 623.3625,1005.4687 652.5,1037.7187 C670.5188,1057.6687 748.4063,1040.8125 772.5,1052.7187 C822.7688,1077.6 858.303,1120.7999 879.8467,1151.4749 " fill="none" id="Decision Log-to-decisions" style="stroke:#181818;stroke-width:1.875;"/><polygon fill="#181818" points="886.3125,1160.6812,882.7513,1142.5613,880.9243,1153.0093,870.4763,1151.1823,886.3125,1160.6812" style="stroke:#181818;stroke-width:1.875;"/><text fill="#000000" font-family="sans-serif" font-size="24.375" lengthAdjust="spacing" textLength="57.6526" x="654.375" y="1031.2844">JSON</text></g><!--link Decision Log to state--><g id="link_Decision Log_state"><path d="M671.9812,916.0687 C696.1688,955.1438 737.9438,1011.2625 791.25,1037.7187 C835.3875,1059.6375 970.2188,1027.4062 1012.5,1052.7187 C1053.2438,1077.1125 1073.2291,1119.6188 1084.0666,1150.425 " fill="none" id="Decision Log-to-state" style="stroke:#181818;stroke-width:1.875;"/><polygon fill="#181818" points="1087.8,1161.0375,1089.2748,1142.6299,1084.6888,1152.1938,1075.1249,1147.6078,1087.8,1161.0375" style="stroke:#181818;stroke-width:1.875;"/><text fill="#000000" font-family="sans-serif" font-size="24.375" lengthAdjust="spacing" textLength="57.6526" x="793.125" y="1031.2844">JSON</text></g><!--reverse link Decision Logic to state--><g id="link_Decision Logic_state"><path d="M726.7647,672.7823 C754.8522,692.4136 777,711.0563 800.625,738.6937 C883.2375,835.2937 854.475,892.9875 935.625,990.8437 C963.6187,1024.6125 983.3625,1019.9437 1012.5,1052.7187 C1042.7813,1086.8063 1069.0313,1133.2875 1083.375,1160.9438 " fill="none" id="Decision Logic-backto-state" style="stroke:#181818;stroke-width:1.875;stroke-dasharray:7.0,7.0;"/><polygon fill="#181818" points="717.5438,666.3375,727.0787,682.1521,725.2279,671.7082,735.6718,669.8574,717.5438,666.3375" style="stroke:#181818;stroke-width:1.875;"/><text fill="#000000" font-family="sans-serif" font-size="24.375" lengthAdjust="spacing" textLength="171.47" x="937.5" y="881.7719">State Recovery</text></g><!--link CT to Cylinder Thermometer Poller--><g id="link_CT_Cylinder Thermometer Poller"><path d="M337.5,140.6625 C337.5,207.4312 337.5,305.4375 337.5,365.1375 " fill="none" id="CT-to-Cylinder Thermometer Poller" style="stroke:#181818;stroke-width:1.875;"/><polygon fill="#181818" points="337.5,376.3875,345,359.5125,337.5,367.0125,330,359.5125,337.5,376.3875" style="stroke:#181818;stroke-width:1.875;"/></g><!--SRC=[VP9HQzim4CVVzIaEFwKFpjQ7mIYbO5neivJ4p6uOT7bGhRCjeaYU93UOiky-INRNnAHzCRxJx_xS_-xCZikMQhe7hJh9IgKbQhZyHip_1zDGfWvSrb1HOV3eXRKSBhz_9OIMLcbuDAW9evO-KuCGfRtWaZcrea6zLtkqg7_B2AY1j214Oscfh8KZrwwyxGmaDNTXaYq2D6Q9LCmnzqZjWJlT7FKBBn5c6Uvs2dAhaUxDHIX9sXPU2S1JfZsIAI5GRo6ER-3f5ajkk9Bme6fURZqrIGtSJnIqXuJHrlNxCNQS3DGvkvzty7UqbZSeHFybLTA6GGOheGqoDV-uWDdgRh7wDVXrOR2RPucNcz8RZWUOvQtsoujXIQiTFHrO85u7atwg8LuMz5dWrh_VRfQ55twJJbfQDZWe1O51qolywR1p11jDckWzPoor60KTBmZNSGokvI7mepckUa-EPSJVLSZuzLv1gMJ5wquZs4QZQPHWXhoTK1ZqwVQluBueClYHhrTaijs03wcHcZqagmjokbsOp-SttdkBaiLAYXugTwYHgqdpZVlc1sxTM1YigsfQEx7dwA6HCzJWzopXp-xQjN44vVx7DL-g5zGzIOUXVNg6_m00]--></g></svg>