<svg xmlns="http://www.w3.org/2000/svg" xmlns:xlink="http://www.w3.org/1999/xlink" contentStyleType="text/css" height="1428.75px" preserveAspectRatio="none" style="width:1162px;height:1428px;background:#FFFFFF;" version="1.1" viewBox="0 0 1162 1428" width="1162.5px" zoomAndPan="magnify"><defs/><g><!--cluster App--><g id="cluster_App"><polygon fill="none" points="224.4938,305.6062,243.2438,286.8562,1077.6188,286.8562,1077.6188,893.3437,1058.8688,912.0937,224.4938,912.0937,224.4938,305.6062" style="stroke:#181818;stroke-width:1.875;"/><line style="stroke:#181818;stroke-width:1.875;" x1="1058.8688" x2="1077.6188" y1="305.6062" y2="286.8562"/><line style="stroke:#181818;stroke-width:1.875;" x1="224.4938" x2="1058.8688" y1="305.6062" y2="305.6062"/><line style="stroke:#181818;stroke-width:1.875;" x1="1058.8688" x2="1058.8688" y1="305.6062" y2="912.0937"/><text fill="#000000" font-family="sans-serif" font-size="26.25" font-weight="bold" lengthAdjust="spacing" textLength="454.671" x="416.2207" y="336.6097">Heatwise Service (Pekko Streams)</text></g><!--cluster Kafka--><g id="cluster_Kafka"><polygon fill="none" points="706.3688,1037.7187,725.1188,1018.9687,1088.8688,1018.9687,1088.8688,1154.8875,1070.1188,1173.6375,706.3688,1173.6375,706.3688,1037.7187" style="stroke:#181818;stroke-width:1.875;"/><line style="stroke:#181818;stroke-width:1.875;" x1="1070.1188" x2="1088.8688" y1="1037.7187" y2="1018.9687"/><line style="stroke:#181818;stroke-width:1.875;" x1="706.3688" x2="1070.1188" y1="1037.7187" y2="1037.7187"/><line style="stroke:#181818;stroke-width:1.875;" x1="1070.1188" x2="1070.1188" y1="1037.7187" y2="1173.6375"/><text fill="#000000" font-family="sans-serif" font-size="26.25" font-weight="bold" lengthAdjust="spacing" textLength="184.3909" x="797.9233" y="1068.7222">Apache Kafka</text></g><!--entity Price Poller--><g id="elem_Price Poller"><rect fill="#F1F1F1" height="87.1655" rx="14.0625" ry="14.0625" style="stroke:#181818;stroke-width:0.9375;" width="215.3888" x="818.0438" y="376.8562"/><rect fill="#F1F1F1" height="18.75" style="stroke:#181818;stroke-width:0.9375;" width="28.125" x="995.9325" y="386.2312"/><rect fill="#F1F1F1" height="3.75" style="stroke:#181818;stroke-width:0.9375;" width="7.5" x="992.1825" y="389.9812"/><rect fill="#F1F1F1" height="3.75" style="stroke:#181818;stroke-width:0.9375;" width="7.5" x="992.1825" y="397.4812"/><text fill="#000000" font-family="sans-serif" font-size="26.25" lengthAdjust="spacing" textLength="140.3888" x="846.1688" y="439.7347">Price Poller</text></g><!--entity Decision Logic--><g id="elem_Decision Logic"><rect fill="#F1F1F1" height="87.1655" rx="14.0625" ry="14.0625" style="stroke:#181818;stroke-width:0.9375;" width="259.5319" x="627.225" y="578.4"/><rect fill="#F1F1F1" height="18.75" style="stroke:#181818;stroke-width:0.9375;" width="28.125" x="849.2569" y="587.775"/><rect fill="#F1F1F1" height="3.75" style="stroke:#181818;stroke-width:0.9375;" width="7.5" x="845.5069" y="591.525"/><rect fill="#F1F1F1" height="3.75" style="stroke:#181818;stroke-width:0.9375;" width="7.5" x="845.5069" y="599.025"/><text fill="#000000" font-family="sans-serif" font-size="26.25" lengthAdjust="spacing" textLength="184.5319" x="655.35" y="641.2784">Decision Logic</text></g><!--entity Relay Adapter--><g id="elem_Relay Adapter"><rect fill="#F1F1F1" height="87.1655" rx="14.0625" ry="14.0625" style="stroke:#181818;stroke-width:0.9375;" width="251.1621" x="316.4063" y="779.9437"/><rect fill="#F1F1F1" height="18.75" style="stroke:#181818;stroke-width:0.9375;" width="28.125" x="530.0684" y="789.3187"/><rect fill="#F1F1F1" height="3.75" style="stroke:#181818;stroke-width:0.9375;" width="7.5" x="526.3184" y="793.0687"/><rect fill="#F1F1F1" height="3.75" style="stroke:#181818;stroke-width:0.9375;" width="7.5" x="526.3184" y="800.5687"/><text fill="#000000" font-family="sans-serif" font-size="26.25" lengthAdjust="spacing" textLength="176.1621" x="344.5313" y="842.8222">Relay Adapter</text></g><!--entity Decision Log--><g id="elem_Decision Log"><rect fill="#F1F1F1" height="87.1655" rx="14.0625" ry="14.0625" style="stroke:#181818;stroke-width:0.9375;" width="238.4985" x="637.7438" y="779.9437"/><rect fill="#F1F1F1" height="18.75" style="stroke:#181818;stroke-width:0.9375;" width="28.125" x="838.7423" y="789.3187"/><rect fill="#F1F1F1" height="3.75" style="stroke:#181818;stroke-width:0.9375;" width="7.5" x="834.9923" y="793.0687"/><rect fill="#F1F1F1" height="3.75" style="stroke:#181818;stroke-width:0.9375;" width="7.5" x="834.9923" y="800.5687"/><text fill="#000000" font-family="sans-serif" font-size="26.25" lengthAdjust="spacing" textLength="163.4985" x="665.8688" y="842.8222">Decision Log</text></g><!--entity Cylinder Thermometer Poller--><g id="elem_Cylinder Thermometer Poller"><rect fill="#F1F1F1" height="87.1655" rx="14.0625" ry="14.0625" style="stroke:#181818;stroke-width:0.9375;" width="441.2183" x="311.3812" y="376.8562"/><rect fill="#F1F1F1" height="18.75" style="stroke:#181818;stroke-width:0.9375;" width="28.125" x="715.0995" y="386.2312"/><rect fill="#F1F1F1" height="3.75" style="stroke:#181818;stroke-width:0.9375;" width="7.5" x="711.3495" y="389.9812"/><rect fill="#F1F1F1" height="3.75" style="stroke:#181818;stroke-width:0.9375;" width="7.5" x="711.3495" y="397.4812"/><text fill="#000000" font-family="sans-serif" font-size="26.25" lengthAdjust="spacing" textLength="366.2183" x="339.5062" y="439.7347">Cylinder Thermometer Poller</text></g><!--entity decisions--><g id="elem_decisions"><path d="M746.2688,1093.9687 L883.9641,1093.9687 C893.3391,1093.9687 893.3391,1118.8015 893.3391,1118.8015 C893.3391,1118.8015 893.3391,1143.6343 883.9641,1143.6343 L746.2688,1143.6343 C736.8938,1143.6343 736.8938,1118.8015 736.8938,1118.8015 C736.8938,1118.8015 736.8938,1093.9687 746.2688,1093.9687 " fill="#F1F1F1" style="stroke:#181818;stroke-width:0.9375;"/><path d="M883.9641,1093.9687 C874.5891,1093.9687 874.5891,1118.8015 874.5891,1118.8015 C874.5891,1143.6343 883.9641,1143.6343 883.9641,1143.6343 " fill="none" style="stroke:#181818;stroke-width:0.9375;"/><text fill="#000000" font-family="sans-serif" font-size="26.25" lengthAdjust="spacing" textLength="118.9453" x="746.2688" y="1128.7222">decisions</text></g><!--entity state--><g id="elem_state"><path d="M967.8,1093.9687 L1048.6887,1093.9687 C1058.0637,1093.9687 1058.0637,1118.8015 1058.0637,1118.8015 C1058.0637,1118.8015 1058.0637,1143.6343 1048.6887,1143.6343 L967.8,1143.6343 C958.425,1143.6343 958.425,1118.8015 958.425,1118.8015 C958.425,1118.8015 958.425,1093.9687 967.8,1093.9687 " fill="#F1F1F1" style="stroke:#181818;stroke-width:0.9375;"/><path d="M1048.6887,1093.9687 C1039.3137,1093.9687 1039.3137,1118.8015 1039.3137,1118.8015 C1039.3137,1143.6343 1048.6887,1143.6343 1048.6887,1143.6343 " fill="none" style="stroke:#181818;stroke-width:0.9375;"/><text fill="#000000" font-family="sans-serif" font-size="26.25" lengthAdjust="spacing" textLength="62.1387" x="967.8" y="1128.7222">state</text></g><!--entity User--><g id="elem_User"><ellipse cx="241.3737" cy="26.25" fill="#F1F1F1" rx="15" ry="15" style="stroke:#181818;stroke-width:0.9375;"/><path d="M241.3737,41.25 L241.3737,91.875 M216.9987,56.25 L265.7487,56.25 M241.3737,91.875 L216.9987,120 M241.3737,91.875 L265.7487,120 " fill="none" style="stroke:#181818;stroke-width:0.9375;"/><text fill="#000000" font-family="sans-serif" font-size="26.25" lengthAdjust="spacing" textLength="56.9348" x="212.9063" y="148.1909">User</text></g><!--entity CT--><g id="elem_CT"><path d="M369.8625,42.675 C369.8625,23.925 531.9813,23.925 531.9813,23.925 C531.9813,23.925 694.1002,23.925 694.1002,42.675 L694.1002,121.3811 C694.1002,140.1311 531.9813,140.1311 531.9813,140.1311 C531.9813,140.1311 369.8625,140.1311 369.8625,121.3811 L369.8625,42.675 " fill="#F1F1F1" style="stroke:#181818;stroke-width:0.9375;"/><path d="M369.8625,42.675 C369.8625,61.425 531.9813,61.425 531.9813,61.425 C531.9813,61.425 694.1002,61.425 694.1002,42.675 " fill="none" style="stroke:#181818;stroke-width:0.9375;"/><text fill="#000000" font-family="sans-serif" font-size="26.25" lengthAdjust="spacing" textLength="286.7377" x="388.6125" y="94.3034">Cylinder Thermometer</text><text fill="#000000" font-family="sans-serif" font-size="26.25" lengthAdjust="spacing" textLength="8.3057" x="388.6125" y="125.2189">&#160;</text></g><!--entity Octopus--><g id="elem_Octopus"><rect fill="#F1F1F1" height="68.4155" rx="14.0625" ry="14.0625" style="stroke:#181818;stroke-width:0.9375;" width="264.5471" x="793.4625" y="47.8125"/><text fill="#000000" font-family="sans-serif" font-size="26.25" lengthAdjust="spacing" textLength="227.0471" x="812.2125" y="91.9409">Octopus Agile API</text></g><!--entity Relay--><g id="elem_Relay"><polygon fill="#F1F1F1" points="30,1093.9687,48.75,1075.2187,317.7301,1075.2187,317.7301,1143.6343,298.9801,1162.3843,30,1162.3843,30,1093.9687" style="stroke:#181818;stroke-width:0.9375;"/><line style="stroke:#181818;stroke-width:0.9375;" x1="298.9801" x2="317.7301" y1="1093.9687" y2="1075.2187"/><line style="stroke:#181818;stroke-width:0.9375;" x1="30" x2="298.9801" y1="1093.9687" y2="1093.9687"/><line style="stroke:#181818;stroke-width:0.9375;" x1="298.9801" x2="298.9801" y1="1093.9687" y2="1162.3843"/><text fill="#000000" font-family="sans-serif" font-size="26.25" lengthAdjust="spacing" textLength="212.7301" x="58.125" y="1138.0972">Shelly/Contactor</text></g><!--entity Append-only file--><g id="elem_Append-only file"><ellipse cx="449.4963" cy="1292.7" fill="#F1F1F1" rx="15" ry="15" style="stroke:#181818;stroke-width:0.9375;"/><path d="M449.4963,1307.7 L449.4963,1358.325 M425.1213,1322.7 L473.8713,1322.7 M449.4963,1358.325 L425.1213,1386.45 M449.4963,1358.325 L473.8713,1386.45 " fill="none" style="stroke:#181818;stroke-width:0.9375;"/><text fill="#000000" font-family="sans-serif" font-size="26.25" lengthAdjust="spacing" textLength="215.2551" x="341.8688" y="1414.6409">Append-only file</text></g><!--link Price Poller to Decision Logic--><g id="link_Price Poller_Decision Logic"><path d="M889.5375,464.7375 C861.075,498.1125 828.8899,535.8296 800.4274,569.1858 " fill="none" id="Price Poller-to-Decision Logic" style="stroke:#181818;stroke-width:1.875;"/><polygon fill="#181818" points="793.125,577.7437,809.7838,569.7751,799.2103,570.6122,798.3733,560.0386,793.125,577.7437" style="stroke:#181818;stroke-width:1.875;"/></g><!--link Decision Logic to Relay Adapter--><g id="link_Decision Logic_Relay Adapter"><path d="M689.4188,666.2812 C636.2625,699.6563 572.1023,739.9485 518.9836,773.3048 " fill="none" id="Decision Logic-to-Relay Adapter" style="stroke:#181818;stroke-width:1.875;"/><polygon fill="#181818" points="509.4563,779.2875,527.7357,776.6649,517.3957,774.3019,519.7587,763.9619,509.4563,779.2875" style="stroke:#181818;stroke-width:1.875;"/></g><!--link Decision Logic to Decision Log--><g id="link_Decision Logic_Decision Log"><path d="M756.9938,666.2812 C756.9938,699.6563 756.9938,734.6812 756.9938,768.0375 " fill="none" id="Decision Logic-to-Decision Log" style="stroke:#181818;stroke-width:1.875;"/><polygon fill="#181818" points="756.9938,779.2875,764.4938,762.4125,756.9938,769.9125,749.4938,762.4125,756.9938,779.2875" style="stroke:#181818;stroke-width:1.875;"/></g><!--link Cylinder Thermometer Poller to Decision Logic--><g id="link_Cylinder Thermometer Poller_Decision Logic"><path d="M580.2563,464.7375 C618.225,498.1125 662.4063,536.9604 700.3563,570.3167 " fill="none" id="Cylinder Thermometer Poller-to-Decision Logic" style="stroke:#181818;stroke-width:1.875;"/><polygon fill="#181818" points="708.8063,577.7437,701.0828,560.9699,701.7647,571.5545,691.18,572.2364,708.8063,577.7437" style="stroke:#181818;stroke-width:1.875;"/></g><!--link User to App--><g id="link_User_App"><path d="M241.7625,154.05 C241.8891,176.8594 242.0367,203.3543 242.1888,230.5896 C242.2648,244.2072 242.3419,258.0099 242.4181,271.6295 C242.4371,275.0344 242.4561,278.4279 242.4749,281.8042 C242.4844,283.4923 242.4309,273.9263 242.4403,275.6052 " fill="none" id="User-to-App" style="stroke:#181818;stroke-width:1.875;"/><polygon fill="#181818" points="242.5032,286.855,249.9087,269.9383,242.4508,277.4801,234.9089,270.0222,242.5032,286.855" style="stroke:#181818;stroke-width:1.875;"/><text fill="#000000" font-family="sans-serif" font-size="24.375" lengthAdjust="spacing" textLength="245.321" x="243.2438" y="235.4219">configure thresholds</text></g><!--link Octopus to Price Poller--><g id="link_Octopus_Price Poller"><path d="M925.7438,116.5875 C925.7438,177.6187 925.7438,297.5062 925.7438,365.1 " fill="none" id="Octopus-to-Price Poller" style="stroke:#181818;stroke-width:1.875;"/><polygon fill="#181818" points="925.7438,376.35,933.2438,359.475,925.7438,366.975,918.2438,359.475,925.7438,376.35" style="stroke:#181818;stroke-width:1.875;"/><text fill="#000000" font-family="sans-serif" font-size="24.375" lengthAdjust="spacing" textLength="127.576" x="927.6188" y="235.4219">HTTP JSON</text></g><!--link Relay Adapter to Relay--><g id="link_Relay Adapter_Relay"><path d="M371.325,867.5437 C336.15,890.8875 294.675,922.2187 263.8688,957.0937 C232.6688,992.4187 212.1551,1030.1062 196.4426,1064.2312 " fill="none" id="Relay Adapter-to-Relay" style="stroke:#181818;stroke-width:1.875;"/><polygon fill="#181818" points="191.7375,1074.45,205.6078,1062.2585,195.6585,1065.9343,191.9827,1055.985,191.7375,1074.45" style="stroke:#181818;stroke-width:1.875;"/><text fill="#000000" font-family="sans-serif" font-size="24.375" lengthAdjust="spacing" textLength="133.5983" x="265.7438" y="982.5344">HTTP (LAN)</text></g><!--link Decision Log to Append-only file--><g id="link_Decision Log_Append-only file"><path d="M703.6688,867.8625 C673.7625,890.9063 635.3813,919.2562 599.4938,942.0937 C550.725,973.125 517.2375,955.9312 485.1188,1003.9687 C430.95,1085.025 430.1849,1190.5685 437.6099,1264.6873 " fill="none" id="Decision Log-to-Append-only file" style="stroke:#181818;stroke-width:1.875;stroke-dasharray:7.0,7.0;"/><polygon fill="#181818" points="438.7313,1275.8813,444.5118,1258.3427,437.7968,1266.5529,429.5865,1259.8379,438.7313,1275.8813" style="stroke:#181818;stroke-width:1.875;"/><text fill="#000000" font-family="sans-serif" font-size="24.375" lengthAdjust="spacing" textLength="218.2443" x="486.9938" y="1128.3157">CSV : Switched Off</text></g><!--link Decision Log to decisions--><g id="link_Decision Log_decisions"><path d="M752.8875,867.6 C750.7312,900.9375 750.1125,948.45 758.8688,988.9687 C767.175,1027.4062 782.0316,1058.5893 795.8503,1083.5456 " fill="none" id="Decision Log-to-decisions" style="stroke:#181818;stroke-width:1.875;"/><polygon fill="#181818" points="801.3,1093.3875,799.6868,1074.9915,796.7586,1085.1859,786.5642,1082.2577,801.3,1093.3875" style="stroke:#181818;stroke-width:1.875;"/><text fill="#000000" font-family="sans-serif" font-size="24.375" lengthAdjust="spacing" textLength="57.6526" x="760.7438" y="982.5344">JSON</text></g><!--link Decision Log to state--><g id="link_Decision Log_state"><path d="M787.575,867.8812 C814.3875,903.15 855.8063,953.1562 899.4938,988.9687 C909.8812,997.5 915.7312,995.025 925.7438,1003.9687 C955.425,1030.5188 975.22,1059.7211 989.7138,1084.2461 " fill="none" id="Decision Log-to-state" style="stroke:#181818;stroke-width:1.875;"/><polygon fill="#181818" points="995.4375,1093.9312,993.3087,1075.5878,990.6677,1085.8603,980.3952,1083.2194,995.4375,1093.9312" style="stroke:#181818;stroke-width:1.875;"/><text fill="#000000" font-family="sans-serif" font-size="24.375" lengthAdjust="spacing" textLength="57.6526" x="901.3688" y="982.5344">JSON</text></g><!--reverse link Decision Logic to state--><g id="link_Decision Logic_state"><path d="M817.3969,673.6979 C850.0594,702.7229 882.4313,736.275 908.8688,779.9437 C972.9938,885.8625 997.9125,1035.6938 1005.4688,1093.2 " fill="none" id="Decision Logic-backto-state" style="stroke:#181818;stroke-width:1.875;stroke-dasharray:7.0,7.0;"/><polygon fill="#181818" points="808.9875,666.225,816.6197,683.0406,815.9954,672.4524,826.5836,671.8281,808.9875,666.225" style="stroke:#181818;stroke-width:1.875;"/><text fill="#000000" font-family="sans-serif" font-size="24.375" lengthAdjust="spacing" textLength="171.47" x="976.3688" y="833.0219">State Recovery</text></g><!--link CT to Cylinder Thermometer Poller--><g id="link_CT_Cylinder Thermometer Poller"><path d="M531.9938,140.6625 C531.9938,207.4312 531.9938,305.4375 531.9938,365.1375 " fill="none" id="CT-to-Cylinder Thermometer Poller" style="stroke:#181818;stroke-width:1.875;"/><polygon fill="#181818" points="531.9938,376.3875,539.4938,359.5125,531.9938,367.0125,524.4938,359.5125,531.9938,376.3875" style="stroke:#181818;stroke-width:1.875;"/></g><!--SRC=[VP71Rjim38RlUWh2f_IGj3qK68eXWE4UqgreZDdRfSk1bMXRY2Avajp06FRkasLlIu8q5q4YFrB_Jxgjr2rQt84rdHRSM4qMRk-O-vTm3Ggpbxg62fMZWune9Tn-kc4CkJSMlZkoJA37LtG4ITOhgKNeLZPaTsP7dknFdG0wo4h6B76FkbQ1N8VojdEGrZ8yq_mnGbEKQIC2ioBqUndw5cJV9IUOvRJT6YYy9TovgrYIjYtyOW0lkHsGt2X5TWFp-H9U7eXB9us69rDBlXceaz38VIE5FQG2sw3tO-mm6AbpTYyh-3rPAnfIgh_EZFPnaD5AbC4c8csHDmHViTfYpCPRjFhMKHS8CVLsoV-Oy-Wf2T-mOJDHmp2WU-16LxBkB85lBBd6AE7OtoL4gSVpkuTLMURmfLW_ivFvH7mCJTJiANs-OiVpWSLYiHnijAJ5t6ZLGnLMdOIQhFWHpc8lVN0eO5rLfxN33mV-0ZqAEKEDZiyIm-8-1na7K35SWdXktidsB2j7xvSM-GS0]--></g></svg>